<svg width="329" height="408" viewBox="0 0 329 408" fill="none" xmlns="http://www.w3.org/2000/svg">
<path d="M255.031 101.465C248.497 92.3992 233.474 73.7584 210.396 46.0667C200.378 34.0554 191.785 23.8602 187.555 18.8549C185.222 16.0938 183.221 13.7314 181.642 11.8637L179.124 8.8959L177.758 7.28652L177.493 6.89524L177.374 6.84357L171.55 0L164.167 5.92076C145.32 21.0179 129.883 40.4782 119.54 62.1679C113.199 75.0725 109.057 87.6892 106.886 100.682C106.318 103.606 105.831 106.611 105.425 109.623C102.893 109.416 100.316 109.283 97.7617 109.224C97.5476 109.209 97.3336 109.202 97.0456 109.194C87.692 108.87 78.3901 109.984 69.4056 112.516L65.5593 113.594L63.5808 117.064C54.3084 133.328 49.0595 151.843 48.4024 170.602C47.5534 194.964 54.1903 218.544 67.5969 238.794C80.7156 258.601 99.2456 273.743 121.186 282.579L124.043 283.731L124.907 284.034L124.944 284.019C136.372 288.168 148.369 290.486 160.601 290.907C161.989 290.959 163.37 290.981 164.75 290.981C180.187 290.981 195.218 287.961 209.481 281.989L209.584 282.033L213.379 280.276C232.618 271.38 249.081 257.398 260.989 239.835C273.236 221.77 280.117 200.634 280.884 178.715C281.8 152.515 273.096 126.528 255.023 101.472L255.031 101.465ZM169.15 182.643C173.13 197.725 172.347 212.217 166.84 225.779C153.079 212.195 142.987 197.26 136.83 181.343C130.237 164.319 126.273 148.122 125.018 133.143C130.843 135.055 136.195 137.58 140.964 140.688C154.681 149.628 164.167 163.744 169.15 182.65V182.643ZM171.66 255.656C177.507 260.107 183.657 264.278 189.999 268.117C180.66 270.657 171.026 271.772 161.281 271.425C159.775 271.373 158.269 271.284 156.755 271.159C162.307 266.375 167.297 261.185 171.653 255.656H171.66ZM187.991 177.674C181.73 153.947 169.483 136.008 151.595 124.358C143.747 119.249 134.807 115.374 124.988 112.841C125.129 111.21 125.306 109.586 125.513 107.991C125.69 106.625 125.874 105.37 126.074 104.196C127.69 95.8468 130.097 87.5858 133.212 79.6497C134.408 76.6081 135.715 73.5886 137.103 70.6726L137.155 70.5692C139.296 66.2357 141.71 61.8579 144.552 57.1774L145.667 55.3391L145.63 55.317C152.23 45.0036 160.136 35.5984 169.18 27.3078L172.672 31.4346C180.815 41.0835 188.47 50.2083 195.432 58.5579C211.09 77.3389 231.392 102.004 239.225 112.878C254.713 134.347 262.177 156.265 261.417 178.043C260.826 194.957 255.821 211.449 246.932 225.727C238.516 239.259 226.793 250.584 212.98 258.557C205.273 254.711 194.081 248.384 182.195 239.178C191.778 220.079 193.734 199.401 187.998 177.674H187.991ZM156.77 243.113C147.985 254.496 137.531 261.901 131.433 265.622C130.444 265.26 129.455 264.884 128.48 264.485L127.698 264.175C109.633 256.711 94.3953 244.095 83.6317 227.676C72.6318 210.896 67.1835 191.391 67.8848 171.266C68.3868 156.841 71.9821 143.058 78.582 130.294C82.4135 129.445 86.3189 128.913 90.2242 128.714L91.2356 128.692C93.2067 128.647 95.1705 128.647 97.0383 128.692C99.7845 128.817 102.538 129.105 105.248 129.541C106.133 147.879 110.637 167.664 118.647 188.364C126.361 208.29 139.178 226.694 156.763 243.105L156.77 243.113Z" fill="white"/>
<path d="M306.359 408C301.885 408 297.841 406.958 294.226 404.875C290.672 402.791 287.883 399.911 285.861 396.234C283.839 392.497 282.828 388.33 282.828 383.734C282.828 379.322 283.778 375.278 285.678 371.601C287.638 367.863 290.365 364.922 293.858 362.777C297.351 360.571 301.334 359.468 305.807 359.468C310.403 359.468 314.386 360.479 317.756 362.501C321.188 364.524 323.792 367.342 325.569 370.958C327.346 374.512 328.235 378.617 328.235 383.274C328.235 383.826 328.204 384.377 328.143 384.929C328.081 385.48 328.051 385.787 328.051 385.848H292.939C293.245 390.015 294.747 393.232 297.443 395.499C300.139 397.766 303.203 398.9 306.634 398.9C311.904 398.9 315.948 396.449 318.767 391.547L327.407 395.683C325.385 399.421 322.566 402.423 318.951 404.691C315.397 406.897 311.199 408 306.359 408ZM317.94 378.127C317.817 376.656 317.327 375.155 316.469 373.623C315.611 372.091 314.263 370.804 312.425 369.763C310.648 368.66 308.411 368.108 305.715 368.108C302.713 368.108 300.108 369.027 297.902 370.866C295.758 372.704 294.287 375.124 293.49 378.127H317.94Z" fill="white"/>
<path d="M260.637 408C255.429 408 251.109 406.805 247.677 404.415C244.307 401.964 241.917 398.9 240.508 395.223L249.516 391.363C250.557 393.875 252.059 395.775 254.019 397.062C256.042 398.349 258.248 398.992 260.637 398.992C263.15 398.992 265.203 398.532 266.796 397.613C268.389 396.633 269.186 395.377 269.186 393.845C269.186 392.374 268.542 391.179 267.255 390.26C265.968 389.28 263.854 388.422 260.913 387.686L254.663 386.216C251.231 385.419 248.259 383.948 245.747 381.804C243.296 379.598 242.07 376.748 242.07 373.256C242.07 369.027 243.817 365.688 247.31 363.237C250.802 360.724 255.092 359.468 260.178 359.468C264.406 359.468 268.144 360.357 271.392 362.134C274.701 363.911 277.09 366.484 278.561 369.855L269.645 373.623C268.787 371.724 267.47 370.314 265.693 369.395C263.916 368.476 261.985 368.016 259.902 368.016C257.88 368.016 256.103 368.476 254.571 369.395C253.039 370.253 252.273 371.417 252.273 372.888C252.273 374.175 252.794 375.216 253.836 376.013C254.939 376.81 256.654 377.484 258.983 378.035L265.785 379.69C270.38 380.854 273.812 382.631 276.079 385.021C278.346 387.349 279.48 390.168 279.48 393.477C279.48 396.173 278.653 398.624 276.998 400.83C275.405 403.036 273.169 404.783 270.289 406.069C267.47 407.356 264.253 408 260.637 408Z" fill="white"/>
<path d="M212.266 408C209.019 408 206.077 407.356 203.442 406.069C200.869 404.721 198.816 402.883 197.284 400.555C195.813 398.165 195.078 395.469 195.078 392.466C195.078 387.686 196.855 383.918 200.409 381.16C204.025 378.403 208.59 377.024 214.105 377.024C218.946 377.024 223.082 377.851 226.513 379.506V377.576C226.513 374.818 225.41 372.551 223.204 370.774C221.06 368.935 218.455 368.016 215.392 368.016C210.734 368.016 206.997 369.916 204.178 373.715L196.457 368.384C198.602 365.504 201.267 363.298 204.454 361.766C207.701 360.234 211.347 359.468 215.392 359.468C222.071 359.468 227.218 361.153 230.833 364.524C234.51 367.832 236.348 372.52 236.348 378.587V406.529H226.513V400.922H225.962C224.491 403.006 222.622 404.721 220.355 406.069C218.088 407.356 215.392 408 212.266 408ZM213.921 399.635C216.188 399.635 218.272 399.084 220.171 397.981C222.132 396.817 223.664 395.315 224.767 393.477C225.931 391.577 226.513 389.555 226.513 387.411C223.266 385.634 219.803 384.745 216.127 384.745C212.757 384.745 210.122 385.48 208.222 386.951C206.323 388.422 205.373 390.291 205.373 392.558C205.373 394.641 206.2 396.357 207.854 397.705C209.57 398.992 211.592 399.635 213.921 399.635Z" fill="white"/>
<path d="M169.845 408C166.536 408 163.564 407.295 160.929 405.886C158.355 404.477 156.425 402.7 155.138 400.555H154.587V406.529H145.027V340.718H155.138V360.48L154.587 366.822H155.138C156.425 364.738 158.355 362.992 160.929 361.583C163.564 360.173 166.536 359.468 169.845 359.468C173.766 359.468 177.382 360.51 180.691 362.594C184.061 364.677 186.726 367.588 188.687 371.326C190.71 375.002 191.721 379.138 191.721 383.734C191.721 388.33 190.71 392.466 188.687 396.143C186.726 399.82 184.061 402.73 180.691 404.875C177.382 406.958 173.766 408 169.845 408ZM168.098 398.717C170.488 398.717 172.694 398.104 174.716 396.878C176.8 395.653 178.454 393.906 179.68 391.639C180.966 389.31 181.61 386.676 181.61 383.734C181.61 380.793 180.966 378.189 179.68 375.921C178.454 373.593 176.8 371.816 174.716 370.59C172.694 369.365 170.488 368.752 168.098 368.752C165.708 368.752 163.472 369.365 161.388 370.59C159.366 371.816 157.712 373.562 156.425 375.829C155.199 378.097 154.587 380.732 154.587 383.734C154.587 386.737 155.199 389.372 156.425 391.639C157.712 393.906 159.366 395.653 161.388 396.878C163.472 398.104 165.708 398.717 168.098 398.717Z" fill="white"/>
<path d="M117.13 408C112.657 408 108.613 406.958 104.997 404.875C101.443 402.791 98.655 399.911 96.6328 396.234C94.6107 392.497 93.5996 388.33 93.5996 383.734C93.5996 379.322 94.5494 375.278 96.449 371.601C98.4099 367.863 101.137 364.922 104.63 362.777C108.122 360.571 112.105 359.468 116.579 359.468C121.174 359.468 125.157 360.479 128.528 362.501C131.959 364.524 134.563 367.342 136.34 370.958C138.118 374.512 139.006 378.617 139.006 383.274C139.006 383.826 138.975 384.377 138.914 384.929C138.853 385.48 138.822 385.787 138.822 385.848H103.71C104.017 390.015 105.518 393.232 108.214 395.499C110.91 397.766 113.974 398.9 117.406 398.9C122.676 398.9 126.72 396.449 129.539 391.547L138.179 395.683C136.157 399.421 133.338 402.423 129.723 404.691C126.168 406.897 121.971 408 117.13 408ZM128.711 378.127C128.589 376.656 128.099 375.155 127.241 373.623C126.383 372.091 125.035 370.804 123.197 369.763C121.419 368.66 119.183 368.108 116.487 368.108C113.484 368.108 110.88 369.027 108.674 370.866C106.529 372.704 105.058 375.124 104.262 378.127H128.711Z" fill="white"/>
<path d="M65.5391 360.939H75.0983V367.741H75.6498C76.6302 365.412 78.4073 363.482 80.9809 361.95C83.5546 360.357 86.1895 359.56 88.8857 359.56C91.0917 359.56 92.8993 359.867 94.3087 360.479V371.05C92.2253 370.008 89.8968 369.487 87.3231 369.487C84.0141 369.487 81.226 370.774 78.9588 373.348C76.7528 375.86 75.6498 378.955 75.6498 382.631V406.529H65.5391V360.939Z" fill="white"/>
<path d="M51.1084 353.218C49.2088 353.218 47.585 352.575 46.2369 351.288C44.9501 349.94 44.3066 348.316 44.3066 346.416C44.3066 344.517 44.9501 342.923 46.2369 341.637C47.585 340.289 49.2088 339.615 51.1084 339.615C53.008 339.615 54.6012 340.289 55.888 341.637C57.2361 342.923 57.9102 344.517 57.9102 346.416C57.9102 348.316 57.2361 349.94 55.888 351.288C54.6012 352.575 53.008 353.218 51.1084 353.218ZM46.053 360.939H56.1638V406.529H46.053V360.939Z" fill="white"/>
<path d="M0 340.718H39.9834V350.553H10.2946V369.487H37.0421V379.23H10.2946V406.529H0V340.718Z" fill="white"/>
</svg>
